<?xml version="1.0" standalone="no"?>
<!DOCTYPE svg PUBLIC "-//W3C//DTD SVG 20010904//EN"
 "http://www.w3.org/TR/2001/REC-SVG-20010904/DTD/svg10.dtd">
<svg version="1.0" xmlns="http://www.w3.org/2000/svg"
 width="150.000000pt" height="94.000000pt" viewBox="0 0 150.000000 94.000000"
 preserveAspectRatio="xMidYMid meet">
<metadata>
Created by potrace 1.16, written by Peter Selinger 2001-2019
</metadata>
<g transform="translate(0.000000,94.000000) scale(0.100000,-0.100000)"
fill="#000000" stroke="none">
<path d="M422 558 c-7 -7 -12 -8 -12 -4 0 5 -7 3 -15 -4 -16 -13 -21 -85 -7
-94 5 -3 8 15 7 39 -1 26 3 42 8 38 6 -4 7 -1 2 7 -5 9 -4 11 3 6 9 -5 9 -13
2 -27 -6 -11 -8 -24 -5 -29 11 -18 14 -51 4 -45 -5 4 -9 -8 -9 -24 0 -27 4
-31 28 -32 l27 -1 -30 -7 -30 -7 28 -7 c15 -4 35 -4 45 1 20 10 45 9 85 -3 18
-5 33 -3 40 4 8 8 8 11 -1 11 -6 0 0 11 13 25 20 19 25 35 26 77 l0 53 25 -69
c18 -52 21 -73 13 -80 -9 -8 -10 -8 -6 0 4 7 1 29 -6 50 l-14 38 -8 -34 c-4
-19 -7 -42 -6 -50 2 -12 0 -12 -7 -1 -6 8 -12 9 -16 3 -11 -18 16 -26 29 -8
10 13 14 14 18 3 3 -8 18 -14 34 -13 15 1 27 3 25 6 -2 3 10 41 25 86 16 44
27 86 25 92 -4 13 -32 17 -33 5 -3 -37 -9 -64 -22 -93 l-14 -35 -15 65 c-13
61 -16 65 -45 68 l-30 3 -2 -68 c-2 -76 -18 -106 -45 -83 -11 8 -16 30 -16 66
0 41 -4 54 -15 54 -19 0 -21 -109 -2 -130 10 -12 9 -12 -5 -1 -20 15 -25 2 -7
-16 9 -9 7 -11 -7 -8 -11 1 -17 9 -14 16 2 8 4 48 5 90 l0 75 -30 2 c-17 1
-36 -3 -43 -10z"/>
<path d="M820 562 c0 -6 15 -13 33 -15 l32 -4 -32 -1 -33 -2 0 -75 c0 -75 0
-75 28 -76 l27 -1 -30 -7 c-21 -4 -26 -9 -17 -15 7 -4 30 -5 50 0 20 4 44 6
52 5 11 -1 16 8 18 31 1 24 -1 29 -7 18 -5 -8 -8 -17 -5 -21 2 -4 0 -10 -5
-14 -11 -6 -8 17 8 57 11 30 7 52 -18 83 -16 20 -16 20 7 1 22 -19 22 -19 22
7 0 21 -5 27 -22 27 -13 0 -42 3 -65 6 -27 4 -43 2 -43 -4z"/>
</g>
</svg>
